# xmcd CD database file
#
# Track frame offsets:
#	150
#	16197
#	34909
#	51449
#	71214
#	84414
#	115842
#	147788
#	173056
#	184076
#	210002
#	229854
#
# Disc length: 3281 seconds
#
# Revision: 0
# Processed by: cddbd v1.5.2PL0 Copyright (c) Steve Scherf et al.
# Submitted via: CDex 1.51
#
DISCID=9c0ccf0c
DTITLE=Inga Matthies and Diego Lopez Collia - Aero
DYEAR=2005
DGENRE=Jazz
TTITLE0=Don't you know
TTITLE1=Another Day
TTITLE2=Me
TTITLE3=That something
TTITLE4=Remember
TTITLE5=Rumberto
TTITLE6=In espera2momentos
TTITLE7=Amanece en tu rostro dormido
TTITLE8=Kalimbeando
TTITLE9=Dali
TTITLE10=Bonus Track 1
TTITLE11=Bonus Track 2
EXTD=YEAR: 2005
EXTT0=
EXTT1=
EXTT2=
EXTT3=
EXTT4=
EXTT5=
EXTT6=
EXTT7=
EXTT8=
EXTT9=
EXTT10=
EXTT11=
PLAYORDER=
